<?xml version="1.0" encoding="UTF-8" standalone="no"?>
<!-- Created with Inkscape (http://www.inkscape.org/) -->

<svg
   xmlns:dc="http://purl.org/dc/elements/1.1/"
   xmlns:cc="http://creativecommons.org/ns#"
   xmlns:rdf="http://www.w3.org/1999/02/22-rdf-syntax-ns#"
   xmlns:svg="http://www.w3.org/2000/svg"
   xmlns="http://www.w3.org/2000/svg"
   xmlns:sodipodi="http://sodipodi.sourceforge.net/DTD/sodipodi-0.dtd"
   xmlns:inkscape="http://www.inkscape.org/namespaces/inkscape"
   width="210mm"
   height="297mm"
   viewBox="0 0 744.09448 1052.3622"
   id="svg3432"
   version="1.1"
   inkscape:version="0.91 r13725"
   sodipodi:docname="gitea.svg"
   inkscape:export-filename="/home/paolo/gitea.png"
   inkscape:export-xdpi="93.218735"
   inkscape:export-ydpi="93.218735">
  <defs
     id="defs3434" />
  <sodipodi:namedview
     id="base"
     pagecolor="#ffffff"
     bordercolor="#666666"
     borderopacity="1.0"
     inkscape:pageopacity="1"
     inkscape:pageshadow="2"
     inkscape:zoom="0.7"
     inkscape:cx="228.5311"
     inkscape:cy="521.38544"
     inkscape:document-units="px"
     inkscape:current-layer="layer1"
     showgrid="true"
     inkscape:window-width="1920"
     inkscape:window-height="1016"
     inkscape:window-x="0"
     inkscape:window-y="27"
     inkscape:window-maximized="1">
    <inkscape:grid
       type="xygrid"
       id="grid4423" />
  </sodipodi:namedview>
  <metadata
     id="metadata3437">
    <rdf:RDF>
      <cc:Work
         rdf:about="">
        <dc:format>image/svg+xml</dc:format>
        <dc:type
           rdf:resource="http://purl.org/dc/dcmitype/StillImage" />
        <dc:title />
      </cc:Work>
    </rdf:RDF>
  </metadata>
  <g
     inkscape:label="Layer 1"
     inkscape:groupmode="layer"
     id="layer1"
     transform="translate(0,-3.464567e-6)">
    <path
       style="fill:#c8c4b7"
       d="m 344.67439,52.043243 c -229.86923,0 -235.14215,0.11273 -238.53515,5.11914 -4.94622,7.29834 -4.31399,13.17445 2.33789,21.71289 5.17089,6.63746 5.9969,11.07251 7.53515,40.423827 5.59148,106.68955 24.92004,181.44336 63.25,244.62305 l 10.00196,16.48437 155.41015,0 155.41211,0 10.00195,-16.48437 c 38.33001,-63.17969 57.65857,-137.9335 63.25,-244.62305 1.5383,-29.351317 2.36427,-33.786367 7.53516,-40.423827 6.65188,-8.53844 7.28415,-14.41455 2.33789,-21.71289 -3.01436,-4.44788 -8.44296,-5.03016 -170.59766,-5.10547 l 0,127.205077 -5.22656,0 0,-127.205077 c -19.15415,-0.008 -39.03682,-0.0137 -62.71289,-0.0137 z"
       id="path3505"
       inkscape:connector-curvature="0" />
    <path
       style="fill:#c8c4b7"
       d="m 357.14314,384.60965 c -169.3368,0 -217.2756,0.006 -232.85742,0.12304 l 0,3.11524 c 0.26814,0.23282 0.53131,0.49134 0.81641,0.81445 5.67407,6.43065 25.28942,10.93603 64.18554,14.74414 l 10.14844,0.99414 157.70703,0 157.70703,0 10.14844,-0.99414 c 38.89618,-3.80811 58.50957,-8.31349 64.18359,-14.74414 0.10563,-0.1197 0.20409,-0.2158 0.30469,-0.32226 l 0,-3.60743 c -15.90477,-0.11526 -64.0626,-0.12304 -232.34375,-0.12304 z"
       id="path3505-1"
       inkscape:connector-curvature="0" />
    <path
       style="fill:#c8c4b7;fill-rule:evenodd;stroke:none;stroke-width:1.08782864px;stroke-linecap:butt;stroke-linejoin:miter;stroke-opacity:1"
       d="m 593.06864,129.08844 a 89.102043,85.313972 0 0 0 -89.10156,85.31446 89.102043,85.313972 0 0 0 89.10156,85.31445 89.102043,85.313972 0 0 0 89.10156,-85.31445 89.102043,85.313972 0 0 0 -89.10156,-85.31446 z m -7.01953,36.91407 a 49.244938,47.72971 0 0 1 49.24414,47.72851 49.244938,47.72971 0 0 1 -49.24414,47.73047 49.244938,47.72971 0 0 1 -49.24609,-47.73047 49.244938,47.72971 0 0 1 49.24609,-47.72851 z"
       id="path3610"
       inkscape:connector-curvature="0" />
    <g
       transform="matrix(1.6697631,0,0,-1.6697631,341.14124,326.21809)"
       inkscape:label="ink_ext_XXXXXX"
       id="g4494"
       style="fill:#000000;fill-opacity:1;stroke:none">
      <g
         transform="scale(0.1,0.1)"
         id="g4496"
         style="fill:#000000;fill-opacity:1;stroke:none">
        <path
           inkscape:connector-curvature="0"
           id="path4498"
           style="fill:#000000;fill-opacity:1;fill-rule:nonzero;stroke:none"
           d="M 901.547,500.352 500.355,901.527 c -23.093,23.11 -60.566,23.11 -83.691,0 L 333.363,818.211 439.039,712.535 c 24.559,8.293 52.723,2.727 72.293,-16.847 19.688,-19.696 25.207,-48.102 16.699,-72.75 L 629.887,521.094 c 24.648,8.496 53.066,3.004 72.754,-16.711 27.5,-27.492 27.5,-72.059 0,-99.574 -27.52,-27.516 -72.078,-27.516 -99.61,0 -20.683,20.703 -25.801,51.097 -15.312,76.582 l -95,94.992 0,-249.969 c 6.699,-3.32 13.027,-7.742 18.613,-13.312 27.5,-27.497 27.5,-72.059 0,-99.598 -27.5,-27.488 -72.09,-27.488 -99.57,0 -27.5,27.539 -27.5,72.101 0,99.598 6.797,6.789 14.668,11.925 23.066,15.363 l 0,252.281 c -8.398,3.438 -16.25,8.531 -23.066,15.367 -20.828,20.821 -25.84,51.395 -15.157,76.977 L 292.426,777.285 17.3281,502.211 c -23.10544,-23.129 -23.10544,-60.602 0,-83.711 L 418.539,17.3242 c 23.098,-23.10545 60.559,-23.10545 83.691,0 L 901.547,416.641 c 23.117,23.113 23.117,60.605 0,83.711" />
      </g>
    </g>
    <path
       style="fill:#c8c4b7"
       d="M 351.64844 464.90039 C 223.82931 464.90039 220.89645 464.96229 219.00977 467.74609 C 216.25941 471.80435 216.61177 475.0725 220.31055 479.82031 C 223.18583 483.51108 223.64466 485.97798 224.5 502.29883 C 227.60915 561.6237 238.35649 603.18912 259.66992 638.32031 L 265.23242 647.48633 L 351.64844 647.48633 L 438.06445 647.48633 L 443.62695 638.32031 C 464.94041 603.18912 475.68775 561.6237 478.79688 502.29883 C 479.65224 485.97798 480.11105 483.51108 482.98633 479.82031 C 486.68512 475.0725 487.03749 471.80435 484.28711 467.74609 C 482.61579 465.27995 479.52153 464.95159 390.11328 464.9082 L 390.11328 522.36133 L 382.74414 522.36133 L 382.74414 464.9082 C 373.15053 464.90468 363.3882 464.90039 351.64844 464.90039 z M 382.74414 542.36133 L 390.11328 542.36133 L 390.11328 542.47461 L 382.74414 542.47461 L 382.74414 542.36133 z "
       transform="translate(0,3.464567e-6)"
       id="path3505-7-9" />
    <path
       style="fill:#c8c4b7"
       d="m 358.58128,649.82441 c -94.15997,0 -120.81641,0.01 -129.48071,0.068 l 0,1.7322 c 0.1491,0.1295 0.29544,0.2732 0.45397,0.4529 3.15507,3.5758 14.06222,6.081 35.69046,8.1985 l 5.64306,0.5528 87.69322,0 87.69323,0 5.64305,-0.5528 c 21.62828,-2.1175 32.53433,-4.6227 35.68938,-8.1985 0.0587,-0.067 0.11348,-0.12 0.16942,-0.1792 l 0,-2.0059 c -8.84387,-0.064 -35.6221,-0.068 -129.19508,-0.068 z"
       id="path3505-1-8-4"
       inkscape:connector-curvature="0" />
    <path
       style="fill:#c8c4b7;fill-rule:evenodd;stroke:none;stroke-width:1.08782864px;stroke-linecap:butt;stroke-linejoin:miter;stroke-opacity:1"
       d="m 489.768,507.74146 a 49.54532,47.438958 0 0 0 -49.54505,47.4392 49.54532,47.438958 0 0 0 49.54505,47.43925 49.54532,47.438958 0 0 0 49.54505,-47.43925 49.54532,47.438958 0 0 0 -49.54505,-47.4392 z m -3.90322,20.52612 a 27.382719,26.540174 0 0 1 27.38227,26.53953 27.382719,26.540174 0 0 1 -27.38227,26.54055 27.382719,26.540174 0 0 1 -27.38336,-26.54055 27.382719,26.540174 0 0 1 27.38336,-26.53953 z"
       id="path3610-5-2"
       inkscape:connector-curvature="0" />
    <g
       transform="matrix(1.2367495,0,0,-1.2367495,334.92789,627.70215)"
       inkscape:label="ink_ext_XXXXXX"
       id="g4494-4-6"
       style="fill:#000000;fill-opacity:1;stroke:none">
      <g
         transform="scale(0.1,0.1)"
         id="g4496-8-2"
         style="fill:#000000;fill-opacity:1;stroke:none">
        <path
           inkscape:connector-curvature="0"
           id="path4498-4-7"
           style="fill:#000000;fill-opacity:1;fill-rule:nonzero;stroke:none"
           d="M 901.547,500.352 500.355,901.527 c -23.093,23.11 -60.566,23.11 -83.691,0 L 333.363,818.211 439.039,712.535 c 24.559,8.293 52.723,2.727 72.293,-16.847 19.688,-19.696 25.207,-48.102 16.699,-72.75 L 629.887,521.094 c 24.648,8.496 53.066,3.004 72.754,-16.711 27.5,-27.492 27.5,-72.059 0,-99.574 -27.52,-27.516 -72.078,-27.516 -99.61,0 -20.683,20.703 -25.801,51.097 -15.312,76.582 l -95,94.992 0,-249.969 c 6.699,-3.32 13.027,-7.742 18.613,-13.312 27.5,-27.497 27.5,-72.059 0,-99.598 -27.5,-27.488 -72.09,-27.488 -99.57,0 -27.5,27.539 -27.5,72.101 0,99.598 6.797,6.789 14.668,11.925 23.066,15.363 l 0,252.281 c -8.398,3.438 -16.25,8.531 -23.066,15.367 -20.828,20.821 -25.84,51.395 -15.157,76.977 L 292.426,777.285 17.3281,502.211 c -23.10544,-23.129 -23.10544,-60.602 0,-83.711 L 418.539,17.3242 c 23.098,-23.10545 60.559,-23.10545 83.691,0 L 901.547,416.641 c 23.117,23.113 23.117,60.605 0,83.711" />
      </g>
    </g>
    <path
       style="fill:#c8c4b7"
       d="M 321.64844 743.4707 L 321.64844 743.47266 C 300.31119 743.47266 283.52524 743.48069 268.57227 743.49609 L 268.57227 926.05859 L 321.64844 926.05859 L 408.06641 926.05859 L 413.62695 916.89258 C 434.94041 881.76139 445.68773 840.19401 448.79688 780.86914 C 449.65224 764.54829 450.113 762.08335 452.98828 758.39258 C 456.68707 753.64477 457.03749 750.37662 454.28711 746.31836 C 452.61499 743.85105 449.53287 743.52166 360 743.47852 L 360 812.36133 L 350 812.36133 L 350 743.47656 C 341.16911 743.47342 332.35219 743.4707 321.64844 743.4707 z M 328.58203 928.39648 C 299.3957 928.39648 286.26182 928.4013 268.57227 928.4043 L 268.57227 939.40039 L 328.58203 939.40039 L 416.27539 939.40039 L 421.91797 938.84766 C 443.54625 936.73016 454.45237 934.22424 457.60742 930.64844 C 457.66612 930.58144 457.7214 930.5299 457.77734 930.4707 L 457.77734 928.46289 C 448.93347 928.39889 422.15501 928.39648 328.58203 928.39648 z "
       transform="translate(0,3.464567e-6)"
       id="path3505-1-8-4-9" />
    <path
       style="fill:#c8c4b7;fill-rule:evenodd;stroke:none;stroke-width:1.08782864px;stroke-linecap:butt;stroke-linejoin:miter;stroke-opacity:1"
       d="m 459.768,786.31289 a 49.54532,47.438958 0 0 0 -49.54505,47.4392 49.54532,47.438958 0 0 0 49.54505,47.43924 49.54532,47.438958 0 0 0 49.54505,-47.43924 49.54532,47.438958 0 0 0 -49.54505,-47.4392 z m -3.90322,20.52612 a 27.382719,26.540174 0 0 1 27.38227,26.53953 27.382719,26.540174 0 0 1 -27.38227,26.54054 27.382719,26.540174 0 0 1 -27.38336,-26.54054 27.382719,26.540174 0 0 1 27.38336,-26.53953 z"
       id="path3610-5-2-6"
       inkscape:connector-curvature="0" />
    <g
       transform="matrix(1.2367484,0,0,-1.2367484,305.22384,909.13073)"
       inkscape:label="ink_ext_XXXXXX"
       id="g4494-4-6-8"
       style="fill:#000000;fill-opacity:1;stroke:none">
      <g
         transform="scale(0.1,0.1)"
         id="g4496-8-2-0"
         style="fill:#000000;fill-opacity:1;stroke:none">
        <path
           inkscape:connector-curvature="0"
           id="path4498-4-7-6"
           style="fill:#000000;fill-opacity:1;fill-rule:nonzero;stroke:none"
           d="M 901.547,500.352 500.355,901.527 c -23.093,23.11 -60.566,23.11 -83.691,0 L 333.363,818.211 439.039,712.535 c 24.559,8.293 52.723,2.727 72.293,-16.847 19.688,-19.696 25.207,-48.102 16.699,-72.75 L 629.887,521.094 c 24.648,8.496 53.066,3.004 72.754,-16.711 27.5,-27.492 27.5,-72.059 0,-99.574 -27.52,-27.516 -72.078,-27.516 -99.61,0 -20.683,20.703 -25.801,51.097 -15.312,76.582 l -95,94.992 0,-249.969 c 6.699,-3.32 13.027,-7.742 18.613,-13.312 27.5,-27.497 27.5,-72.059 0,-99.598 -27.5,-27.488 -72.09,-27.488 -99.57,0 -27.5,27.539 -27.5,72.101 0,99.598 6.797,6.789 14.668,11.925 23.066,15.363 l 0,252.281 c -8.398,3.438 -16.25,8.531 -23.066,15.367 -20.828,20.821 -25.84,51.395 -15.157,76.977 L 292.426,777.285 17.3281,502.211 c -23.10544,-23.129 -23.10544,-60.602 0,-83.711 L 418.539,17.3242 c 23.098,-23.10545 60.559,-23.10545 83.691,0 L 901.547,416.641 c 23.117,23.113 23.117,60.605 0,83.711" />
      </g>
    </g>
  </g>
</svg>
